<?xml version="1.0" encoding="UTF-8" standalone="no"?>
<!DOCTYPE svg PUBLIC "-//W3C//DTD SVG 1.1//EN" "http://www.w3.org/Graphics/SVG/1.1/DTD/svg11.dtd">
<svg width="100%" height="100%" viewBox="0 0 350 350" version="1.1" xmlns="http://www.w3.org/2000/svg" xmlns:xlink="http://www.w3.org/1999/xlink" xml:space="preserve" xmlns:serif="http://www.serif.com/" style="fill-rule:evenodd;clip-rule:evenodd;stroke-linecap:round;stroke-linejoin:round;stroke-miterlimit:1.5;">
    <g id="Ebene1" transform="matrix(1,0,0,2.17898,6.61669,0)">
        <rect x="-7.301" y="0" width="351.369" height="160.626" style="fill:rgb(10,9,9);"/>
        <g transform="matrix(1,0,0,0.502098,-5.01956,-18.6934)">
            <ellipse cx="173.403" cy="156.519" rx="103.129" ry="92.177" style="fill:white;"/>
        </g>
        <g transform="matrix(1,0,0,0.389683,-6.61669,29.1362)">
            <path d="M294.939,364.051C307.095,346.81 350,369.709 350,349.802C350,287.21 251.437,158.468 175,158.468C98.563,158.468 0,294.719 0,357.311C0,377.218 42.905,346.81 55.061,364.051L294.939,364.051Z" style="fill:white;"/>
        </g>
        <g transform="matrix(0.514141,0,0,0.514141,-196.41,31.5369)">
            <g transform="matrix(3.91059,0,0,1.79469,188.334,-283.843)">
                <path d="M70.046,321.049L146.838,243.277L156.353,250.915L77.119,328.122L70.046,321.049Z" style="fill:rgb(50,255,118);"/>
            </g>
            <g transform="matrix(0.414094,0.193464,-0.658541,0.296877,650.458,-120.155)">
                <path d="M878.828,140.787C953.363,141.655 1010.1,174.703 1005.41,231.855C1004.14,247.304 1004.86,261.892 1001.12,282.302C997.971,299.526 989.07,321.238 984.461,331.124C982.334,335.685 962.9,362.014 937.059,388.563C920.883,405.182 908.519,430.328 894.951,430.328C885.327,430.328 866.379,417.411 860.025,407.893C855.92,401.742 821.824,373.674 796.222,344.387C776.469,321.792 771.189,298.03 766.647,285.173C758.565,262.292 757.702,237.694 758.551,225.775C762.868,165.22 820.452,140.108 878.828,140.787Z" style="fill:rgb(50,255,118);"/>
            </g>
        </g>
        <g transform="matrix(1.57041,0,0,0.720711,-132.098,-78.8101)">
            <path d="M270.143,337.704L143.97,211.531C143.97,211.531 120.685,228.536 121.134,237.665C121.507,245.242 173.356,295.305 177.179,300.495C182.244,307.371 191.874,292.222 200.552,293.393C210.135,294.686 259.884,346.785 259.884,346.785L270.143,337.704" style="fill:rgb(255,135,118);stroke:rgb(255,135,118);stroke-width:0.64px;"/>
        </g>
        <g transform="matrix(1,0,0,0.458931,-0.833557,0)">
            <ellipse cx="143.649" cy="97.136" rx="16.118" ry="16.331" style="stroke:black;stroke-width:1px;"/>
        </g>
        <g transform="matrix(1,0,0,0.458931,48.1862,0)">
            <ellipse cx="143.649" cy="97.136" rx="16.118" ry="16.331" style="stroke:black;stroke-width:1px;"/>
        </g>
        <g transform="matrix(1,0,0,0.458931,-6.61669,-3.18941)">
            <path d="M127.531,167.624L150.999,144.155L194.878,144.155L215.57,167.624" style="fill:none;stroke:black;stroke-width:28.12px;stroke-linecap:square;stroke-linejoin:bevel;"/>
        </g>
    </g>
</svg>
