<?xml version="1.0" encoding="UTF-8" standalone="no"?>
<!DOCTYPE svg PUBLIC "-//W3C//DTD SVG 1.1//EN" "http://www.w3.org/Graphics/SVG/1.1/DTD/svg11.dtd">
<svg width="100%" height="100%" viewBox="0 0 163 131" version="1.1" xmlns="http://www.w3.org/2000/svg" xmlns:xlink="http://www.w3.org/1999/xlink" xml:space="preserve" xmlns:serif="http://www.serif.com/" style="fill-rule:evenodd;clip-rule:evenodd;stroke-linecap:square;stroke-linejoin:round;stroke-miterlimit:1.5;">
    <g transform="matrix(1,0,0,1,-535,-535)">
        <g transform="matrix(0.529048,0,0,0.488793,549.731,540.089)">
            <path d="M125,0L125,250" style="fill:none;stroke:rgb(10,9,9);stroke-width:7.58px;"/>
        </g>
        <g transform="matrix(127.488,0,0,127.488,531.948,639.27)">
            <path d="M0.469,-0.424C0.469,-0.387 0.463,-0.356 0.452,-0.331C0.441,-0.306 0.423,-0.284 0.399,-0.264L0.482,-0L0.297,-0L0.235,-0.224L0.212,-0.224L0.212,-0L0.044,-0L0.044,-0.621L0.276,-0.621C0.343,-0.621 0.392,-0.605 0.423,-0.574C0.454,-0.543 0.469,-0.493 0.469,-0.424ZM0.238,-0.329C0.255,-0.329 0.268,-0.334 0.275,-0.344C0.282,-0.354 0.286,-0.372 0.286,-0.399C0.286,-0.425 0.282,-0.443 0.275,-0.454C0.268,-0.464 0.256,-0.469 0.239,-0.469L0.212,-0.469L0.212,-0.329L0.238,-0.329Z" style="fill:rgb(50,255,118);fill-rule:nonzero;"/>
        </g>
        <g transform="matrix(127.488,0,0,127.488,634.623,639.27)">
            <path d="M0.481,-0.179C0.481,-0.06 0.417,-0 0.289,-0L0.044,-0L0.044,-0.621L0.284,-0.621C0.347,-0.621 0.394,-0.608 0.425,-0.583C0.456,-0.557 0.471,-0.516 0.471,-0.46C0.471,-0.404 0.448,-0.361 0.402,-0.332L0.402,-0.326C0.455,-0.305 0.481,-0.256 0.481,-0.179ZM0.249,-0.111C0.269,-0.111 0.282,-0.116 0.29,-0.125C0.297,-0.134 0.3,-0.152 0.3,-0.181C0.3,-0.209 0.296,-0.229 0.289,-0.241C0.282,-0.252 0.268,-0.258 0.249,-0.258L0.217,-0.258L0.217,-0.111L0.249,-0.111ZM0.25,-0.355C0.265,-0.355 0.276,-0.36 0.282,-0.369C0.288,-0.378 0.291,-0.395 0.291,-0.419C0.291,-0.442 0.288,-0.459 0.281,-0.469C0.275,-0.478 0.264,-0.483 0.249,-0.483L0.217,-0.483L0.217,-0.355L0.25,-0.355Z" style="fill:rgb(255,135,118);fill-rule:nonzero;"/>
        </g>
    </g>
</svg>
